# xmcd CD database file
#
# Track frame offsets:
#	183
#	28608
#	56183
#	70533
#	88658
#	110545
#	126558
#	140533
#	153795
#	166133
#	181908
#	206883
#	237145
#	253158
#	284133
#
# Disc length: 4320 seconds
#
# Revision: 0
# Processed by: cddbd v1.4PL0 Copyright (c) Steve Scherf et al.
# Submitted via: CDex 1.50beta9
#
DISCID=de10de0f
DTITLE=Kenny Clarke - Klook
DYEAR=1900
DGENRE=Jazz
TTITLE0=Up On Teddy's Hill
TTITLE1=Fat Boy
TTITLE2=Angel
TTITLE3=Anthropology
TTITLE4=Tadd WAlk
TTITLE5=Tiny's Blues
TTITLE6=Bruz
TTITLE7=Conglomeration
TTITLE8=Roll'em Bags
TTITLE9=Good Bait
TTITLE10=Blues in the Closet
TTITLE11=Jay Jay
TTITLE12=The Top
TTITLE13=Autumn Leaves
TTITLE14=Salt Peanuts
EXTD=
EXTT0=
EXTT1=
EXTT2=
EXTT3=
EXTT4=
EXTT5=
EXTT6=
EXTT7=
EXTT8=
EXTT9=
EXTT10=
EXTT11=
EXTT12=
EXTT13=
EXTT14=
PLAYORDER=
